<?xml version="1.0" encoding="UTF-8" standalone="no"?>
<svg
   xmlns:dc="http://purl.org/dc/elements/1.1/"
   xmlns:cc="http://creativecommons.org/ns#"
   xmlns:rdf="http://www.w3.org/1999/02/22-rdf-syntax-ns#"
   xmlns:svg="http://www.w3.org/2000/svg"
   xmlns="http://www.w3.org/2000/svg"
   id="svg3900"
   preserveAspectRatio="xMidYMid meet"
   viewBox="0 0 1280.000000 825.000000"
   height="825.000000pt"
   width="1280.000000pt"
   version="1.0">
  <defs
     id="defs3904" />
  <metadata
     id="metadata3894">
Created by potrace 1.15, written by Peter Selinger 2001-2017
<rdf:RDF>
  <cc:Work
     rdf:about="">
    <dc:format>image/svg+xml</dc:format>
    <dc:type
       rdf:resource="http://purl.org/dc/dcmitype/StillImage" />
    <dc:title></dc:title>
  </cc:Work>
</rdf:RDF>
</metadata>
  <g
     id="g3898"
     stroke="none"
     fill="#000000"
     transform="translate(0.000000,825.000000) scale(0.100000,-0.100000)">
    <path
       id="path3896"
       d="M2870 8230 c-370 -79 -762 -394 -1157 -930 -776 -1054 -1451 -2859 -1653 -4415 -44 -340 -54 -500 -54 -860 0 -366 10 -507 54 -755 135 -749 488 -1174 1043 -1256 264 -39 525 12 787 153 249 134 457 300 750 599 257 262 426 464 860 1029 139 182 295 381 347 442 l94 113 2459 0 2459 0 94 -113 c52 -61 220 -276 375 -477 456 -594 628 -795 918 -1080 246 -240 416 -374 629 -494 278 -156 547 -213 822 -172 129 19 235 52 344 107 679 340 915 1448 654 3064 -210 1300 -740 2753 -1371 3764 -204 326 -395 571 -619 797 -265 266 -479 405 -731 476 -79 23 -84 23 -934 26 -830 3 -856 2 -920 -17 -85 -26 -209 -105 -410 -261 -181 -140 -280 -204 -357 -232 -49 -17 -104 -18 -953 -18 -849 0 -904 1 -953 18 -77 28 -176 92 -357 232 -200 155 -324 234 -408 260 -62 19 -93 20 -896 19 -764 0 -838 -2 -916 -19z m6713 -1244 c105 -25 197 -106 233 -208 20 -55 20 -161 0 -216 -83 -232 -381 -295 -546 -116 -65 70 -85 123 -85 224 0 65 5 96 21 131 42 90 125 159 223 185 60 16 84 16 154 0z m-6223 -491 l0 -355 355 0 355 0 -2 -236 -3 -235 -352 1 -353 0 -2 -357 -3 -358 -237 -3 -238 -2 0 360 0 360 -355 0 -355 0 0 235 0 235 355 0 355 0 0 355 0 355 240 0 240 0 0 -355z m5423 -309 c108 -25 207 -118 237 -222 18 -62 9 -180 -18 -236 -31 -63 -96 -126 -162 -157 -80 -37 -192 -36 -271 2 -66 32 -132 99 -162 165 -31 66 -31 198 -1 263 43 92 132 165 231 188 55 13 81 12 146 -3z m1684 -26 c113 -56 178 -161 178 -290 0 -65 -5 -85 -33 -142 -58 -119 -161 -183 -292 -183 -132 1 -234 65 -292 183 -28 57 -33 76 -33 142 1 60 6 87 27 131 80 174 273 243 445 159z m-805 -808 c64 -31 126 -96 157 -162 34 -73 36 -191 4 -262 -30 -66 -95 -133 -162 -165 -48 -24 -68 -28 -141 -28 -73 0 -93 4 -142 28 -167 82 -234 293 -142 453 31 55 114 129 167 148 64 24 199 17 259 -12z m-4507 -1287 c241 -51 446 -255 501 -501 34 -154 4 -333 -78 -472 -52 -89 -160 -191 -253 -239 -107 -55 -189 -76 -305 -76 -256 -1 -480 139 -590 368 -50 105 -64 169 -63 285 1 257 138 473 370 586 127 62 275 79 418 49z m2768 0 c137 -29 284 -121 371 -231 96 -122 139 -252 139 -414 -1 -185 -66 -333 -204 -465 -127 -121 -273 -179 -449 -178 -177 1 -333 65 -455 188 -123 124 -183 257 -192 425 -7 123 13 220 69 333 82 164 260 303 438 341 85 19 199 19 283 1z" />
  </g>
  <path
     transform="scale(0.75000001)"
     id="path3906"
     d="M 138.30932,1095.4763 C 87.533648,1084.1103 52.191388,1052.7373 28.542112,998.03691 19.281809,976.61795 9.8058866,939.30522 5.7295953,908.20952 1.4642215,875.67141 1.4935168,785.34621 5.7828656,743.96216 21.27936,594.45056 72.526216,419.06109 143.21662,273.60295 186.57525,184.38482 230.36069,118.39804 277.9537,70.547685 312.67024,35.6434 334.85436,20.349541 370.12904,7.0014686 c 11.59644,-4.388132 15.22494,-4.5351922 128.02703,-5.1888245 77.42798,-0.4486567 118.85527,0.071281 124.38822,1.5611495 9.0619,2.4401173 34.23276,18.5630584 65.42319,41.9061594 10.9852,8.221392 24.65279,17.308323 30.37243,20.19318 l 10.39936,5.245194 124.15625,-0.0206 124.15626,-0.0206 10.51216,-4.941639 c 5.78168,-2.717899 24.64286,-15.415193 41.91376,-28.216205 17.2709,-12.801015 36.6658,-25.942064 43.0999,-29.2023336 l 11.6982,-5.9276329 h 119.8386 c 111.2865,0 120.6638,0.2790717 131.4019,3.9105935 91.0936,30.806735 190.0583,163.4577 268.7609,360.24346 97.802,244.54125 128.2345,499.58833 74.9755,628.3506 -17.8677,43.19813 -42.4772,71.88683 -75.6764,88.22013 -22.7383,11.1869 -38.2923,14.5405 -67.2778,14.506 -31.0725,-0.037 -44.3111,-3.3263 -75.6875,-18.8055 -30.9097,-15.2489 -62.2576,-39.2566 -98.5015,-75.4371 -33.3668,-33.30836 -56.4932,-60.35299 -105.3707,-123.22311 -18.4291,-23.70491 -42.8134,-54.68949 -54.1874,-68.85462 l -20.68,-25.75479 H 853.20024 524.52913 l -23.00068,28.90843 c -12.65037,15.89964 -36.09927,45.84823 -52.10866,66.55243 -16.00938,20.70419 -38.59321,49.08702 -50.18629,63.07294 -28.69705,34.62018 -82.03794,87.44982 -107.57433,106.54332 -24.75653,18.5104 -57.01625,35.6334 -78.94533,41.9032 -20.98064,5.9985 -54.79812,7.3398 -74.40452,2.951 z M 691.20501,727.61879 c 33.87971,-8.82223 57.667,-35.09524 64.28274,-71.00016 8.4454,-45.83487 -25.77482,-92.66273 -73.30896,-100.31789 -36.24161,-5.83654 -75.57919,14.46498 -91.65869,47.30361 -3.2511,6.63956 -6.78246,18.86562 -8.14057,28.18362 -2.04365,14.02139 -1.8702,18.59855 1.17191,30.92605 12.09834,49.02586 59.31394,77.49234 107.65357,64.90477 z m 382.74929,-4.92735 c 23.8451,-11.15846 41.8733,-32.11638 48.0605,-55.87074 16.3645,-62.82765 -33.4799,-118.89901 -97.8673,-110.0935 -26.55213,3.63123 -53.84528,23.87046 -66.15855,49.0599 -5.73141,11.72486 -6.16634,14.31989 -6.16634,36.79254 0,21.89437 0.53792,25.32598 5.69542,36.33258 11.07582,23.63694 36.95052,44.73791 61.19727,49.90678 16.1121,3.43472 40.6127,0.71691 55.239,-6.12756 z m 209.8085,-255.09682 c 12.3315,-3.68455 25.1869,-17.21197 28.3699,-29.85307 3.9658,-15.7495 0.09,-30.65164 -10.9614,-42.14349 -27.2269,-28.31254 -75.5821,-9.49954 -75.5821,29.40585 0,31.56573 27.5547,51.73942 58.1736,42.59071 z M 448.29031,392.18758 V 343.6289 l 47.30563,0.72837 47.3056,0.72834 -9e-4,-32.06207 -9.3e-4,-32.06208 h -47.3047 -47.3047 v -47.30471 -47.3047 h -32.58769 -32.58768 v 47.3047 47.30471 h -47.30471 -47.3047 v 31.53647 31.53647 h 47.3047 47.30471 v 48.35592 48.35592 h 32.58768 32.58769 z m 736.59949,-37.66487 c 4.2512,-2.87774 10.2592,-8.85399 13.3511,-13.28059 4.8074,-6.88256 5.64,-10.27988 5.7476,-23.45443 0.1133,-13.87041 -0.5116,-16.31472 -6.2689,-24.5215 -15.6223,-22.26891 -44.5958,-26.5457 -65.136,-9.61475 -22.7756,18.77357 -20.6137,53.6618 4.3728,70.56829 9.7706,6.61103 11.284,6.98695 25.2982,6.28345 11.5948,-0.58203 16.6228,-1.91048 22.6352,-5.98047 z m 212.5608,1.54823 c 24.1884,-13.70024 29.8864,-47.72416 11.3587,-67.82437 -14.5756,-15.81266 -34.779,-19.38521 -54.0384,-9.55557 -9.725,4.96348 -13.7387,9.42646 -19.0928,21.23014 -7.6773,16.92533 -4.5364,33.91701 8.8801,48.04033 9.0892,9.56804 16.9703,12.71882 31.9555,12.7755 9.257,0.0349 14.8298,-1.20694 20.9369,-4.66603 z M 1291.2217,247.82462 c 24.4925,-15.14255 27.6801,-47.23392 6.7549,-68.00423 -20.2311,-20.08126 -49.0028,-17.68661 -66.7291,5.55383 -4.7053,6.16897 -6.1166,10.53768 -6.7825,20.99535 -1.0731,16.8524 1.8785,25.58205 11.987,35.45277 15.5764,15.2099 36.2178,17.47203 54.7697,6.00228 z"
     style="fill:#000000;stroke-width:2.1024313" />
  <path
     transform="scale(0.75000001)"
     id="path3908"
     d="M 138.30932,1095.4763 C 106.75046,1088.4119 84.199778,1075.569 63.03944,1052.6089 40.425047,1028.071 25.62203,998.54912 15.159005,957.12013 5.0540994,917.10913 2.5746765,892.29603 2.5766244,831.20057 2.5784733,773.20391 4.1888886,748.63044 11.148835,700.39651 41.874811,487.45881 134.30227,250.3924 240.25384,112.76695 259.27692,88.057 299.60064,47.469831 318.17092,34.340837 337.89374,20.397014 363.78266,7.9578593 380.41577,4.4333223 c 11.35672,-2.406478 36.75061,-3.0272655 124.64018,-3.0469974 68.89819,-0.015474 113.28884,0.7837839 118.12441,2.1268252 8.51758,2.3656919 33.93972,18.7225289 64.73931,41.6538769 10.95892,8.159286 24.69087,17.246217 30.51544,20.193183 l 10.59014,5.358117 h 124.12607 124.12607 l 10.62954,-5.296916 c 5.84623,-2.913303 24.71737,-15.65694 41.93577,-28.31919 17.2185,-12.662252 36.0368,-25.652668 41.8185,-28.8675932 l 10.5121,-5.8453183 h 120.8898 c 120.1553,0 120.9735,0.02894 134.6633,4.7627817 86.8998,30.0495728 182.9298,156.7988288 260.4046,343.7061088 53.7335,129.63185 87.9236,261.61211 103.6211,399.99666 4.1012,36.15566 3.4516,131.29498 -1.0983,160.83599 -10.4847,68.07507 -30.0682,114.69885 -61.1899,145.67975 -42.1937,42.0028 -107.4436,52.8998 -166.0435,27.7301 -38.1012,-16.3652 -70.3813,-40.3738 -115.8286,-86.14818 -31.9752,-32.20545 -53.4576,-57.69202 -112.5388,-133.51516 -21.1738,-27.17392 -44.1413,-56.26631 -51.0388,-64.64976 l -12.541,-15.24263 H 853.02179 524.57036 l -28.561,36.26694 c -15.70857,19.94682 -41.87684,53.29664 -58.15174,74.11071 -69.47556,88.85278 -124.03611,143.48518 -172.47884,172.70608 -18.00921,10.8632 -40.11001,20.7729 -55.71443,24.9815 -18.35068,4.9493 -53.47712,5.8679 -71.35503,1.8661 z M 687.73247,728.65205 c 35.71545,-8.23373 62.20429,-37.57373 68.05643,-75.38169 6.87216,-44.39797 -27.31367,-89.18831 -73.78419,-96.67219 -56.98775,-9.17759 -109.02633,42.87179 -99.61951,99.64021 8.28588,50.00354 57.07717,83.54171 105.34727,72.41367 z m 370.93653,-0.91393 c 6.6381,-1.729 15.99,-5.14383 20.782,-7.58854 13.6121,-6.94439 30.4133,-25.17916 38.0097,-41.25289 6.0948,-12.89653 6.7319,-16.1278 6.7459,-34.21461 0.025,-32.88924 -11.8837,-56.62792 -36.7334,-73.22195 -18.6111,-12.42797 -30.1349,-15.61925 -53.2783,-14.75436 -16.8972,0.63149 -21.2389,1.62645 -33.5363,7.68519 -18.79091,9.25806 -33.63758,24.02709 -42.0887,41.86864 -6.32555,13.35414 -6.74668,15.69011 -6.73743,37.37126 0.008,20.46334 0.63489,24.45845 5.43722,34.69012 18.13738,38.64289 61.54521,59.79781 101.39931,49.41714 z m 233.3878,-264.59441 c 27.7437,-16.25888 28.2414,-56.39976 0.9235,-74.47972 -7.408,-4.90287 -10.8465,-5.73461 -23.7077,-5.73461 -13.2082,0 -16.128,0.75126 -23.9397,6.15974 -4.8932,3.38786 -11.3074,10.27328 -14.2538,15.30095 -7.3701,12.57605 -6.5261,33.65246 1.8547,46.31667 12.5248,18.92627 38.6664,24.42535 59.123,12.43697 z M 448.29031,392.39032 V 344.0344 h 47.3047 47.3047 v -31.53647 -31.53647 h -47.3047 -47.3047 v -47.30471 -47.3047 h -32.58769 -32.58768 v 47.3047 47.30471 h -47.30471 -47.3047 v 31.53647 31.53647 h 47.3047 47.30471 v 48.35592 48.35592 h 32.58768 32.58769 z m 728.88119,-33.76784 c 7.3741,-2.78015 18.863,-13.60528 23.2923,-21.94659 2.019,-3.80214 3.4091,-11.79536 3.4999,-20.12471 0.1272,-11.67396 -0.7389,-15.16195 -5.5839,-22.48491 -6.9208,-10.46033 -20.6429,-18.92951 -33.5328,-20.69627 -16.8481,-2.30929 -36.4181,9.01306 -44.0099,25.46212 -9.7292,21.08039 1.0094,49.49954 22.3068,59.03358 7.6306,3.41599 25.8967,3.82223 34.0276,0.75678 z m 219.5103,-2.66051 c 35.1596,-18.56213 28.0628,-72.00705 -10.7997,-81.33003 -31.7605,-7.61921 -61.1491,22.44693 -52.681,53.89532 2.7275,10.12893 14.2831,24.14098 23.761,28.81206 10.4404,5.14534 28.5544,4.51722 39.7197,-1.37735 z m -105.898,-107.80876 c 13.0374,-7.55757 20.2918,-21.04343 20.2918,-37.72237 0,-46.59072 -62.4048,-60.32876 -83.5886,-18.40151 -4.4062,8.72081 -4.3923,28.3877 0.026,37.69985 4.4472,9.37174 18.0131,20.89903 27.7705,23.59721 10.7556,2.97422 25.0342,0.89347 35.4997,-5.17318 z"
     style="fill:#ffffff;stroke-width:2.1024313" />
  <path
     transform="scale(0.75000001)"
     id="path3910"
     d="m 384.13492,391.74225 v -47.97072 h -47.3047 -47.30471 v -31.01086 -31.01086 h 47.30471 47.3047 v -47.3047 -47.30471 h 31.79928 31.79927 v 47.30471 47.3047 h 47.30471 47.3047 v 12.00303 c 0,6.60166 -0.15693,20.57391 -0.34873,31.04943 l -0.34873,19.04641 -46.82457,-0.12339 -46.82458,-0.12339 -0.32077,28.33624 c -0.17643,15.58493 -0.35382,37.00466 -0.39421,47.5994 l -0.0734,19.26316 -6.43869,0.31264 c -3.54129,0.17194 -17.7327,0.3772 -31.53647,0.45612 l -25.09778,0.14349 z"
     style="fill:#ffffff;stroke-width:0.52560782" />
  <path
     transform="scale(0.75000001)"
     id="path3912"
     d="m 384.13492,391.77403 v -48.0025 h -47.3047 -47.30471 v -31.01086 -31.01086 h 47.30471 47.3047 v -47.3047 -47.30471 h 31.79928 31.79927 v 47.30471 47.3047 h 47.30471 47.3047 l -0.001,13.2716 c -4.7e-4,7.29938 -0.15723,21.26573 -0.34836,31.03633 l -0.34752,17.76474 -46.82495,-0.0799 -46.82494,-0.0799 -0.3185,29.61991 c -0.17517,16.29095 -0.35257,37.69703 -0.3942,47.56906 l -0.0755,17.94914 -6.43869,0.30742 c -3.54129,0.16907 -17.7327,0.38864 -31.53647,0.48791 l -25.09778,0.18049 z"
     style="fill:#ffffff;stroke-width:0.52560782" />
  <path
     transform="scale(0.75000001)"
     id="path3914"
     d="m 384.13492,391.79399 v -48.02246 h -47.3047 -47.30471 v -31.01086 -31.01086 h 47.30471 47.3047 v -47.3047 -47.30471 h 31.79928 31.79927 v 47.30471 47.3047 h 47.30471 47.3047 l -0.001,14.84842 c -5.1e-4,8.16663 -0.15694,22.12152 -0.34762,31.01086 l -0.34657,16.16244 H 494.6906 447.73352 l -5.1e-4,18.00207 c -2.8e-4,9.90114 -0.15705,31.28733 -0.34837,47.52487 l -0.34785,29.52281 -4.77631,0.2928 c -2.62697,0.16104 -16.77988,0.38495 -31.45091,0.49758 l -26.6746,0.20478 z"
     style="fill:#ffffff;stroke-width:0.52560782" />
  <path
     transform="scale(0.75000001)"
     id="path3916"
     d="m 384.13492,391.83726 v -48.06573 h -47.3047 -47.30471 v -31.01086 -31.01086 h 47.30471 47.3047 v -47.3047 -47.30471 h 31.79928 31.79927 v 47.30471 47.3047 h 47.30471 47.3047 l -0.001,16.42524 c -5.3e-4,9.03389 -0.15686,22.98878 -0.34733,31.01087 l -0.34628,14.58561 H 494.6909 447.73352 l -5.2e-4,21.15572 c -3.1e-4,11.63564 -0.15701,33.02444 -0.3482,47.53067 l -0.34764,26.37495 -3.72525,0.2811 c -2.04889,0.15461 -16.20188,0.39538 -31.45108,0.53506 l -27.72581,0.25396 v -48.06573 z"
     style="fill:#ffffff;stroke-width:0.52560782" />
  <path
     transform="scale(0.75000001)"
     id="path3918"
     d="m 384.13492,391.89853 v -48.127 h -47.3047 -47.30471 v -31.01086 -31.01086 h 47.30471 47.3047 v -47.3047 -47.30471 h 31.79928 31.79927 v 47.30471 47.3047 h 47.30471 47.3047 l -0.001,18.00207 c -5.3e-4,9.90114 -0.15676,23.85602 -0.34697,31.01086 l -0.34591,13.00879 h -46.95774 -46.95774 v 23.82887 c 0,13.10588 -0.15658,34.49467 -0.34795,47.53064 l -0.34795,23.70178 -3.72551,0.28261 c -2.04903,0.15545 -16.20213,0.4238 -31.45132,0.59636 l -27.72582,0.31373 z"
     style="fill:#000000;stroke-width:0.52560782" />
  <path
     transform="scale(0.75000001)"
     id="path3920"
     d="m 1255.9882,252.29615 c -12.0135,-4.0034 -22.1827,-12.69643 -27.4855,-23.49582 -2.7708,-5.64275 -2.9998,-7.03166 -2.9998,-18.19798 0,-11.27203 0.2073,-12.49797 3.0666,-18.14109 5.8505,-11.54626 18.478,-21.04786 32.0045,-24.08182 7.3391,-1.64615 17.8926,0.0718 26.1976,4.26466 7.1648,3.61716 15.6967,12.30579 19.8105,20.17449 2.7612,5.2813 2.9788,6.57254 2.9977,17.78376 0.019,11.12949 -0.2128,12.5639 -2.918,18.07271 -4.5016,9.16679 -11.2482,15.98063 -20.207,20.40831 -6.7619,3.34193 -8.9061,3.8741 -16.9998,4.21916 -5.9317,0.25288 -10.7738,-0.10897 -13.4668,-1.00638 z"
     style="fill:#000000;stroke-width:1.05121565" />
  <path
     transform="scale(0.75000001)"
     id="path3930"
     d="m 648.03657,726.56639 c -28.9743,-7.01396 -54.92322,-32.87155 -62.6123,-62.39192 -7.28094,-27.95344 1.67765,-60.62766 22.34561,-81.50001 12.67127,-12.79657 31.20367,-22.17708 49.08927,-24.84742 36.95104,-5.51681 73.94855,14.94026 90.57248,50.08035 22.38144,47.31051 -5.86212,105.14523 -57.97653,118.71931 -10.76403,2.80367 -29.70146,2.7761 -41.41853,-0.0604 z"
     style="fill:#000000;stroke-width:1.48664343" />
  <path
     transform="scale(0.75000001)"
     id="path3934"
     d=""
     style="fill:#000000;stroke-width:0.74332172" />
  <path
     transform="scale(0.75000001)"
     id="path3942"
     d="m 1363.0197,358.07807 c -12.4825,-3.80081 -24.9624,-17.02167 -28.5367,-30.23097 -3.7051,-13.69298 0.9962,-29.88924 11.8169,-40.70998 7.5272,-7.52722 15.5671,-11.12507 26.5129,-11.86445 13.7243,-0.92707 23.1011,2.72609 33.2569,12.9568 9.4246,9.49406 11.8664,15.7011 11.8171,30.03896 -0.054,15.70962 -8.8735,30.02693 -23.0103,37.3546 -6.894,3.57342 -23.8838,4.88273 -31.8568,2.45504 z"
     style="fill:#000000;stroke-width:1.48664343" />
  <circle
     r="33.310394"
     cy="237.63326"
     cx="871.19507"
     id="path3944"
     style="fill:#000000;stroke-width:0.75" />
  <circle
     r="33.310394"
     cy="319.23386"
     cx="951.61298"
     id="path3944-6"
     style="fill:#000000;stroke-width:0.75" />
  <circle
     r="33.310394"
     cy="238.42168"
     cx="1032.031"
     id="path3944-2"
     style="fill:#000000;stroke-width:0.75" />
  <circle
     r="33.310394"
     cy="158.39787"
     cx="951.21881"
     id="path3944-3"
     style="fill:#000000;stroke-width:0.75" />
  <circle
     r="65.438171"
     cy="481.44958"
     cx="778.3595"
     id="path3944-33"
     style="fill:#000000;stroke-width:1.47337282" />
  <circle
     r="65.438171"
     cy="482.04089"
     cx="501.4299"
     id="path3944-33-6"
     style="fill:#000000;stroke-width:1.47337282" />
</svg>
